<svg xmlns="http://www.w3.org/2000/svg" xmlns:xlink="http://www.w3.org/1999/xlink" width="1366" height="768" viewBox="0 0 1366 768"><defs><style>.a{fill:none;}.b{clip-path:url(#a);}.c{fill:#b0e3f7;opacity:0.3;}.d{fill:#89c3ef;opacity:0.2;}.e{fill:#afd2f9;}.f{fill:#71abea;}.g{fill:#e6daf7;}.h{fill:#bcedca;opacity:0.54;}.i{fill:#9ed8ae;}.j{fill:#8adddd;}.k{fill:#a8dff4;}.l{fill:#cdd6fc;}.m{fill:#ffbe2e;}.n{fill:#a7e593;}.o{fill:#cbf4cb;}.p{fill:#ace885;}.q{fill:#6fbc5c;}.r{fill:#88f2e0;opacity:0.35;}.ac,.r{mix-blend-mode:multiply;isolation:isolate;}.s{fill:#7ccbf2;}.t{fill:#dcf3ff;}.u,.z{fill:#76b6cc;}.u{opacity:0.16;}.v{fill:#ffd337;}.ac,.w{fill:#f7c219;}.x{fill:#f2b303;}.y{fill:#d69005;opacity:0.49;}.aa{fill:#e9f7ff;}.ab{fill:#c3e5f4;}.ac{opacity:0.37;}.ad,.ae,.ap{fill:#e28c03;opacity:0.36;}.ae,.af{font-size:56px;}.ae,.af,.ap,.aq{font-family:SegoeUI, Segoe UI;letter-spacing:0.2em;}.af,.aq{fill:#ffe5ab;}.ag{fill:#7c7cce;}.ah{fill:#46468c;}.ai{fill:#f4a28c;}.aj{fill:#5fc0c3;}.ak{fill:#feb49d;}.al{fill:#56569b;}.am{fill:#e2e0e0;}.an{fill:#2a4241;}.ao{fill:#354c4c;}.ap,.aq{font-size:87px;}.ar{fill:#76cbff;}.as{fill:#013247;}.at{fill:#053b60;}.au{fill:#a1d9df;}.av{fill:#f9a791;}.aw{fill:#80d2d6;}</style><clipPath id="a"><rect class="a" width="1366" height="768"/></clipPath></defs><g transform="translate(443)"><g class="b" transform="translate(-443)"><path class="c" d="M848.608-42.854c-23,24.147-14.37,59.8-.209,88.377s33.162,58.048,27.283,88.63c-16.469,85.653-146.755,77.6-223.6,80.159-115.4,3.837-218.819,64.414-243.88,163.988-20.964,83.308,25.376,175.686,110.86,220.992,55.31,29.315,122.751,39.491,177.052,70.118,59.8,33.729,99.032,92.092,102.646,152.7h534.68V-54.747Z" transform="translate(94.376 15.782)"/></g></g><g transform="translate(581.443 166.221)"><ellipse class="d" cx="297.802" cy="26.956" rx="297.802" ry="26.956" transform="translate(25.509 453.689)"/><ellipse class="d" cx="115.3" cy="13.026" rx="115.3" ry="13.026" transform="translate(514.9 546.02)"/><g transform="translate(424.098 98.516)"><path class="e" d="M753.851,536.067c-1.839-12.318,3.287-25.451,10.528-35.967,8.613-12.514,20.082-22.927,28.136-35.807,19.622-31.381,15.637-73.232-1.429-106.074-15.486-29.8-41.732-59.873-32.767-92.242,4.725-17.066,18.485-29.841,28.313-44.573s15.232-35.964,3.411-49.151c-6.962-7.766-18.2-10.4-28.61-9.8a59.382,59.382,0,0,0-48.2,31.137c-7.03,13.432-8.637,29.224-15.946,42.508-9.505,17.277-27.262,28.068-41.451,41.762-36.052,34.794-48.052,92.227-28.947,138.547,4.921,11.928,1.342,22.507-6.768,32.543-4.112,5.089-9.455,9.163-13.037,14.637-4.258,6.5-5.687,14.5-5.708,22.277-.047,17.885,8.615,36.8,21.49,50.2Z" transform="translate(-601.37 -162.372)"/><path class="f" d="M740.2,172.785a123.734,123.734,0,0,0-22.733,22.008,46.342,46.342,0,0,1-1.751-20.575c.331-2.348-3.263-3.362-3.6-.992a50.569,50.569,0,0,0,2.632,25.1c-18.007,24.233-27.26,54.777-24.22,85.241,1.137,11.4,3.793,22.6,6.427,33.8A150.232,150.232,0,0,1,665.4,263.64c-.759-2.265-4.364-1.293-3.6.992a154.564,154.564,0,0,0,36.82,59.9c2.553,11.194,4.757,22.429,5.073,33.913a1.51,1.51,0,0,0,0,1.3c.019,1.214.042,2.429.013,3.648a114.71,114.71,0,0,1-5.134,30.369,252.426,252.426,0,0,1-65.935-70.485c-1.273-2.029-4.5-.158-3.221,1.883A257.164,257.164,0,0,0,697.4,397.507c-5.085,15.661-12.44,30.747-19.1,45.635-11.427,25.555-21.225,52.677-16.768,81.05.371,2.366,3.967,1.361,3.6-.992-4.483-28.539,5.546-54.146,16.955-79.556a1.9,1.9,0,0,0,.544-.152,152.354,152.354,0,0,0,52.148-43.319c1.465-1.9-1.775-3.763-3.221-1.884a148.176,148.176,0,0,1-47.018,39.93c9.219-20.289,18.723-40.58,21.821-62.266a98.074,98.074,0,0,0,.906-15.895,116.8,116.8,0,0,0,29.222-38.942c1.005-2.163-2.21-4.061-3.221-1.883a114.321,114.321,0,0,1-26.195,35.956,199.741,199.741,0,0,0-4.7-30.331,1.69,1.69,0,0,0-.294-2.127c-.077-.077-.152-.156-.23-.235-1.147-5.138-2.353-10.279-3.5-15.436a171.476,171.476,0,0,1-4.247-31.408,142.513,142.513,0,0,0,36.483-33.081c1.455-1.873-1.167-4.533-2.637-2.638a139.839,139.839,0,0,1-33.921,31.314,113.8,113.8,0,0,1,4.829-33.484,121.909,121.909,0,0,1,18.4-36.694c1.137-.03,2.2-.887,1.659-2.21l0,0a119.064,119.064,0,0,1,23.171-22.849C743.984,174.588,742.126,171.348,740.2,172.785Z" transform="translate(-576.873 -153.986)"/></g><g transform="translate(114.004 49.392)"><g transform="translate(31.52 28.787)"><path class="g" d="M453.771,154.606A340.783,340.783,0,0,1,516.31,327.022c.2,2.523,4.119,2.259,3.923-.267a347.913,347.913,0,0,0-40.875-138.606,344.2,344.2,0,0,0-22.333-35.755c-1.467-2.06-4.725.143-3.253,2.212Z" transform="translate(-453.398 -151.57)"/></g><g transform="translate(34.085 56.772)"><path class="g" d="M479.689,181.663a135.09,135.09,0,0,0-22.059-14.976c-2.227-1.209-4.095,2.254-1.869,3.46a130.935,130.935,0,0,1,25.764,18.327C480.84,186.227,480.235,183.955,479.689,181.663Z" transform="translate(-454.76 -166.435)"/></g><g transform="translate(66.742 55.384)"><path class="g" d="M478.683,167.215l-6.535,33.507c-.484,2.487,3.37,3.27,3.856.783q3.264-16.752,6.533-33.5c.486-2.487-3.37-3.27-3.854-.785Z" transform="translate(-472.107 -165.698)"/></g><g transform="translate(49.613 101.842)"><path class="g" d="M463.985,194.193q13.849,8.531,27.7,17.066c2.159,1.329,3.888-2.206,1.749-3.524l-27.7-17.066c-2.157-1.329-3.886,2.206-1.749,3.524Z" transform="translate(-463.008 -190.375)"/></g><path class="g" d="M469.727,148.394c8.453,11.469,3.569,29.416,3.569,29.416s-18.589-.646-27.042-12.115-3.569-29.416-3.569-29.416S461.274,136.925,469.727,148.394Z" transform="translate(-432.572 -136.279)"/><path class="g" d="M466.08,159.9c13.144,5.5,18.179,23.4,18.179,23.4s-16.279,9-29.425,3.505-18.179-23.4-18.179-23.4S452.934,154.406,466.08,159.9Z" transform="translate(-436.655 -117)"/><path class="g" d="M478.311,184.188C490.23,191.995,491.9,210.52,491.9,210.52s-17.649,5.868-29.568-1.937-13.591-26.332-13.591-26.332S466.392,176.382,478.311,184.188Z" transform="translate(-425.986 -97.572)"/><g transform="translate(61.728 148.707)"><path class="g" d="M470.421,219.085l27.693,17.066c2.159,1.331,3.888-2.2,1.749-3.522q-13.849-8.534-27.7-17.066c-2.157-1.331-3.886,2.2-1.747,3.522Z" transform="translate(-469.444 -215.269)"/></g><path class="g" d="M484.746,209.082c11.919,7.805,13.591,26.33,13.591,26.33s-17.649,5.87-29.568-1.937-13.591-26.33-13.591-26.33S472.829,201.275,484.746,209.082Z" transform="translate(-420.306 -75.601)"/><path class="g" d="M499.175,178.716c-3.626,13.777-20.666,21.236-20.666,21.236s-11.162-14.88-7.536-28.657,20.665-21.236,20.665-21.236S502.8,164.937,499.175,178.716Z" transform="translate(-407.004 -124.117)"/><g transform="translate(82.223 100.319)"><path class="g" d="M486.906,191.083l-6.535,33.507c-.484,2.487,3.372,3.27,3.856.783q3.267-16.751,6.533-33.5c.486-2.487-3.37-3.27-3.854-.785Z" transform="translate(-480.33 -189.566)"/></g><path class="g" d="M507.4,202.584c-3.626,13.777-20.666,21.236-20.666,21.236s-11.162-14.88-7.536-28.657,20.666-21.236,20.666-21.236S511.024,188.805,507.4,202.584Z" transform="translate(-399.747 -103.05)"/></g><g transform="translate(0 214.828)"><path class="h" d="M453.247,391.974c12.506,20.6,4.443,46.476-5.524,69.037H564.807c4.782-23.516,7.542-47.864,2.259-71.206-5.633-24.883-21.955-48.592-46.019-57.062-11.367-4-24.12-4.6-34.205-11.2-22.648-14.807-19.5-49.564-35.361-71.485-16.211-22.4-47.734-26.114-75.382-25.9,18.4,11.175,17.538,37.586,16.448,59.084s-3.993,44.991,8.086,62.806C413.8,365.476,441.07,371.912,453.247,391.974Z" transform="translate(-376.099 -224.154)"/><g transform="translate(29.077 18.804)"><path class="i" d="M392.314,238.854c24.837,26.185,10.324,67.855,28.461,97.418,9.136,14.891,24.645,20.214,40.015,26.466,16.023,6.518,28.906,17.147,37.281,32.426,8.912,16.258,11.578,35.564,6.563,53.468-.953,3.4,4.328,4.848,5.279,1.455,8.556-30.549-3.965-65.1-29.854-83.388-15.029-10.62-35.48-12.359-48.673-25.66-13.244-13.353-15.178-33.793-16.87-51.54-1.839-19.314-4.39-39.817-18.331-54.515-2.43-2.562-6.3,1.314-3.871,3.871Z" transform="translate(-391.544 -234.142)"/></g><g transform="translate(142.346 137.567)"><path class="i" d="M460.4,299.87a134.23,134.23,0,0,1-8.5,49.8c-1.233,3.306,4.057,4.733,5.279,1.455a138.474,138.474,0,0,0,8.7-51.252c-.07-3.519-5.544-3.53-5.475,0Z" transform="translate(-451.71 -297.227)"/></g><g transform="translate(88.436 158.157)"><path class="i" d="M424.415,313.266a67.8,67.8,0,0,0,39.97,8.557c3.477-.331,3.511-5.81,0-5.475a62.743,62.743,0,0,1-37.206-7.809c-3.074-1.732-5.838,3-2.764,4.727Z" transform="translate(-423.074 -308.164)"/></g><g transform="translate(104.991 106.641)"><path class="i" d="M431.934,284.225a190.406,190.406,0,0,1,3.946,39.567c-.015,3.522,5.46,3.526,5.475,0a197.7,197.7,0,0,0-4.142-41.024c-.714-3.447-5.992-1.988-5.279,1.457Z" transform="translate(-431.868 -280.799)"/></g><g transform="translate(31.047 103.308)"><path class="i" d="M394.02,284.016q12.3,5.416,24.594,10.831c3.195,1.406,5.983-3.31,2.764-4.727q-12.3-5.414-24.594-10.831c-3.195-1.406-5.985,3.31-2.764,4.727Z" transform="translate(-392.591 -279.029)"/></g><g transform="translate(52.201 56.195)"><path class="i" d="M421.816,255.987a111.831,111.831,0,0,1-17.527,46.235c-1.95,2.946,2.79,5.691,4.727,2.764a115.394,115.394,0,0,0,18.079-47.544c.491-3.445-4.784-4.934-5.279-1.455Z" transform="translate(-403.827 -254.004)"/></g><g transform="translate(26.865 47.508)"><path class="i" d="M391.71,254.492l17.683,9.957c3.074,1.73,5.838-3,2.764-4.727l-17.683-9.957c-3.074-1.732-5.838,3-2.764,4.727Z" transform="translate(-390.369 -249.39)"/></g></g><path class="j" d="M678.218,258.614h-7.964a53.766,53.766,0,0,0-6.879-16.855l5.559-5.559a9.688,9.688,0,0,0,0-13.656l-3.377-3.376a9.684,9.684,0,0,0-13.656,0l-5.478,5.478a53.739,53.739,0,0,0-16.934-7.084v-7.679a9.686,9.686,0,0,0-9.658-9.656h-4.774a9.684,9.684,0,0,0-9.656,9.656v7.679a53.731,53.731,0,0,0-16.936,7.084l-5.479-5.478a9.684,9.684,0,0,0-13.656,0l-3.377,3.376a9.688,9.688,0,0,0,0,13.656l5.561,5.559a53.726,53.726,0,0,0-6.881,16.855h-7.963a9.684,9.684,0,0,0-9.656,9.656v4.774a9.686,9.686,0,0,0,9.656,9.658H564.8a53.8,53.8,0,0,0,7,16.563l-5.851,5.849a9.688,9.688,0,0,0,0,13.656l3.377,3.377a9.684,9.684,0,0,0,13.656,0l5.93-5.932a53.749,53.749,0,0,0,16.484,6.794v8.421a9.686,9.686,0,0,0,9.656,9.658h4.774a9.687,9.687,0,0,0,9.658-9.658v-8.421a53.758,53.758,0,0,0,16.482-6.794l5.93,5.932a9.685,9.685,0,0,0,13.656,0l3.377-3.377a9.688,9.688,0,0,0,0-13.656l-5.851-5.849a53.8,53.8,0,0,0,7-16.563h8.135a9.686,9.686,0,0,0,9.656-9.658V268.27A9.684,9.684,0,0,0,678.218,258.614ZM617.444,300.1a29.81,29.81,0,1,1,29.809-29.809A29.843,29.843,0,0,1,617.444,300.1Z" transform="translate(-225.248 -30.445)"/><path class="k" d="M710.57,239.835H705.1a36.885,36.885,0,0,0-4.723-11.572l3.818-3.816a6.65,6.65,0,0,0,0-9.375l-2.319-2.319a6.647,6.647,0,0,0-9.375,0l-3.761,3.761a36.947,36.947,0,0,0-11.629-4.865v-5.271a6.649,6.649,0,0,0-6.629-6.631H667.2a6.65,6.65,0,0,0-6.631,6.631v5.271a36.952,36.952,0,0,0-11.627,4.865l-3.761-3.761a6.647,6.647,0,0,0-9.375,0l-2.319,2.319a6.647,6.647,0,0,0,0,9.375l3.818,3.816a36.891,36.891,0,0,0-4.724,11.572h-5.469a6.65,6.65,0,0,0-6.631,6.631v3.279a6.65,6.65,0,0,0,6.631,6.629H632.7a36.907,36.907,0,0,0,4.806,11.373l-4.017,4.018a6.647,6.647,0,0,0,0,9.375l2.319,2.319a6.651,6.651,0,0,0,9.375,0l4.072-4.074a36.905,36.905,0,0,0,11.316,4.665v5.782a6.65,6.65,0,0,0,6.631,6.631h3.28a6.649,6.649,0,0,0,6.629-6.631V284.05a36.9,36.9,0,0,0,11.318-4.665l4.072,4.074a6.651,6.651,0,0,0,9.375,0l2.319-2.319a6.65,6.65,0,0,0,0-9.375l-4.017-4.018a36.906,36.906,0,0,0,4.8-11.373h5.588a6.648,6.648,0,0,0,6.629-6.629v-3.279A6.649,6.649,0,0,0,710.57,239.835Zm-41.728,28.482A20.468,20.468,0,1,1,689.31,247.85,20.491,20.491,0,0,1,668.842,268.317Z" transform="translate(-160.402 -30.869)"/><path class="l" d="M668.874,197.409H664a32.88,32.88,0,0,0-4.208-10.309l3.4-3.4a5.922,5.922,0,0,0,0-8.351l-2.065-2.065a5.922,5.922,0,0,0-8.351,0l-3.351,3.349a32.882,32.882,0,0,0-10.358-4.332v-4.7a5.924,5.924,0,0,0-5.906-5.906h-2.922a5.924,5.924,0,0,0-5.906,5.906v4.7a32.882,32.882,0,0,0-10.358,4.332l-3.351-3.349a5.922,5.922,0,0,0-8.351,0l-2.065,2.065a5.922,5.922,0,0,0,0,8.351l3.4,3.4a32.924,32.924,0,0,0-4.208,10.309h-4.87a5.923,5.923,0,0,0-5.906,5.906v2.922a5.923,5.923,0,0,0,5.906,5.906h4.976a32.946,32.946,0,0,0,4.279,10.13l-3.577,3.577a5.925,5.925,0,0,0,0,8.353l2.065,2.065a5.922,5.922,0,0,0,8.351,0l3.628-3.628a32.913,32.913,0,0,0,10.081,4.155v5.151a5.923,5.923,0,0,0,5.906,5.906h2.922a5.923,5.923,0,0,0,5.906-5.906V236.8a32.894,32.894,0,0,0,10.082-4.155l3.628,3.628a5.922,5.922,0,0,0,8.351,0l2.065-2.065a5.924,5.924,0,0,0,0-8.353l-3.577-3.577a32.9,32.9,0,0,0,4.279-10.13h4.978a5.924,5.924,0,0,0,5.906-5.906v-2.922A5.924,5.924,0,0,0,668.874,197.409ZM631.7,222.781a18.233,18.233,0,1,1,18.233-18.233A18.255,18.255,0,0,1,631.7,222.781Z" transform="translate(-188.52 -64.452)"/><g transform="translate(140.298)"><g transform="translate(382.788)"><path class="m" d="M718.3,110.043l-15.87,27.99-15.87,27.99-16.305-27.738L653.95,110.546l32.175-.252Z" transform="translate(-653.95 -110.043)"/></g><g transform="translate(0 8.903)"><path class="m" d="M458.468,249.606l-7.846-18.146,225.209-97.388,66.985,45.314,119.728-64.615,9.388,17.4-130.27,70.3L673.731,156.52Z" transform="translate(-450.622 -114.772)"/></g></g><g transform="translate(360.208 276.619)"><rect class="n" width="205.926" height="180.582" rx="10.197"/><rect class="o" width="205.926" height="180.582" rx="10.197" transform="translate(0 15.16)"/><path class="p" d="M7.846,0H99.869a7.846,7.846,0,0,1,7.846,7.846V34.923a7.846,7.846,0,0,1-7.846,7.846H7.847A7.847,7.847,0,0,1,0,34.923V7.846A7.846,7.846,0,0,1,7.846,0Z" transform="translate(111.363 84.067)"/><path class="q" d="M653.211,317.618a9.872,9.872,0,1,1-9.872-9.872A9.873,9.873,0,0,1,653.211,317.618Z" transform="translate(-509.151 -212.167)"/></g><g transform="translate(198.298 170.269)"><path class="r" d="M610.916,435.659v-178.7H567.708v178.7a17.193,17.193,0,0,0,17.284,17.1h8.639A17.193,17.193,0,0,0,610.916,435.659Z" transform="translate(-405.28 -150.64)"/><path class="s" d="M642.729,200.486H498.714A17.284,17.284,0,0,0,481.43,217.77V486.536a17.284,17.284,0,0,0,17.284,17.284H642.729a17.328,17.328,0,0,0,17.284-17.284V217.77A17.283,17.283,0,0,0,642.729,200.486Z" transform="translate(-481.43 -200.486)"/><path class="t" d="M488.852,210.272V459.223H639.491V210.272Z" transform="translate(-474.88 -191.849)"/><path class="u" d="M639.491,210.272H488.852V459.223h7.691v-240.3H639.491Z" transform="translate(-474.88 -191.849)"/></g><g transform="translate(105.525 451.491)"><rect class="v" width="116.516" height="22.113"/><rect class="w" width="89.911" height="22.113"/><rect class="x" width="24.913" height="22.113"/><rect class="y" width="116.516" height="3.38" transform="translate(0 18.733)"/></g><g transform="translate(118.277 429.859)"><rect class="v" width="116.516" height="22.113"/><rect class="w" width="89.911" height="22.113"/><rect class="x" width="24.913" height="22.113"/><rect class="y" width="116.516" height="3.38" transform="translate(0 18.733)"/></g><g transform="translate(105.525 408.227)"><rect class="v" width="116.516" height="22.113"/><rect class="w" width="89.911" height="22.113"/><rect class="x" width="24.913" height="22.113"/><rect class="y" width="116.516" height="3.38" transform="translate(0 18.733)"/></g><g transform="translate(95.608 386.595)"><rect class="v" width="116.516" height="22.113"/><rect class="w" width="89.911" height="22.113"/><rect class="x" width="24.913" height="22.113"/><rect class="y" width="116.516" height="3.38" transform="translate(0 18.733)"/></g><g transform="translate(108.753 364.963)"><rect class="v" width="116.516" height="22.113"/><rect class="w" width="89.911" height="22.113"/><rect class="x" width="24.913" height="22.113"/><rect class="y" width="116.516" height="3.38" transform="translate(0 18.733)"/></g><g transform="translate(293.5 104.621)"><path class="m" d="M541.954,206.295l-4.977-8.621L532,189.052h19.91l-4.977,8.621Z" transform="translate(-531.999 -144.929)"/><g transform="translate(7.496)"><g transform="translate(0 35.806)"><path class="m" d="M538.858,197.074a2.878,2.878,0,0,1-2.3-4.611c1.77-2.348,3.658-4.656,5.618-6.86a2.878,2.878,0,1,1,4.3,3.824c-1.854,2.09-3.645,4.277-5.32,6.5A2.876,2.876,0,0,1,538.858,197.074Z" transform="translate(-535.981 -184.635)"/></g><g transform="translate(17.335)"><path class="m" d="M722.392,284.479a2.88,2.88,0,0,1-2.88-2.879v-6.585c0-3.212-.145-6.452-.439-9.633a2.878,2.878,0,1,1,5.732-.529c.311,3.357.467,6.776.465,10.164V281.6A2.88,2.88,0,0,1,722.392,284.479Zm-3.234-32.724a2.882,2.882,0,0,1-2.79-2.174,102.9,102.9,0,0,0-5.121-15.189,2.88,2.88,0,0,1,5.3-2.261,109.3,109.3,0,0,1,5.409,16.042,2.881,2.881,0,0,1-2.088,3.5A2.962,2.962,0,0,1,719.158,251.756Zm-12.877-30.214a2.876,2.876,0,0,1-2.444-1.354,103.978,103.978,0,0,0-9.518-12.9,2.88,2.88,0,0,1,4.358-3.765,109.873,109.873,0,0,1,10.044,13.617,2.879,2.879,0,0,1-2.44,4.405ZM684.8,196.678a2.872,2.872,0,0,1-1.864-.685,104.328,104.328,0,0,0-12.986-9.413,2.878,2.878,0,1,1,3.008-4.908,109.887,109.887,0,0,1,13.707,9.933,2.88,2.88,0,0,1-1.866,5.074Zm-136.729-.945a2.88,2.88,0,0,1-1.834-5.1,109.834,109.834,0,0,1,13.843-9.743,2.879,2.879,0,1,1,2.941,4.951,104.272,104.272,0,0,0-13.118,9.232A2.867,2.867,0,0,1,548.068,195.733Zm108.7-16.222a2.86,2.86,0,0,1-1.1-.222,103,103,0,0,0-15.245-4.991,2.879,2.879,0,1,1,1.359-5.6,108.787,108.787,0,0,1,16.1,5.269,2.88,2.88,0,0,1-1.107,5.539Zm-80.442-.554a2.88,2.88,0,0,1-1.071-5.554,108.844,108.844,0,0,1,16.158-5.044,2.879,2.879,0,1,1,1.282,5.614,103.424,103.424,0,0,0-15.3,4.774A2.856,2.856,0,0,1,576.326,178.957Zm48.509-7.212c-.081,0-.162,0-.243-.009a105.557,105.557,0,0,0-16.04-.107,2.918,2.918,0,0,1-3.07-2.673,2.877,2.877,0,0,1,2.671-3.071A111.252,111.252,0,0,1,625.07,166a2.88,2.88,0,0,1-.235,5.75Z" transform="translate(-545.189 -165.615)"/></g><g transform="translate(191.658 129.687)"><path class="m" d="M640.665,248.9a2.88,2.88,0,0,1-2.88-2.879v-8.637a2.879,2.879,0,1,1,5.759,0v8.637A2.88,2.88,0,0,1,640.665,248.9Z" transform="translate(-637.785 -234.502)"/></g></g><path class="m" d="M644.218,259.4l-5.444-9.429-5.444-9.429h21.776l-5.444,9.429Z" transform="translate(-442.563 -99.487)"/></g><g transform="translate(234.62 272.316)"><path class="t" d="M534.144,345.877a11.273,11.273,0,1,0,11.275,11.273A11.273,11.273,0,0,0,534.144,345.877Z" transform="translate(-481.176 -174.209)"/><rect class="z" width="105.939" height="17.656"/><rect class="aa" width="90.805" height="213.139" transform="translate(7.513 6.306)"/><rect class="ab" width="52.186" height="3.262" transform="translate(12.712 13.179)"/><rect class="ab" width="76.644" height="2.733" transform="translate(12.712 33.5)"/><rect class="ab" width="76.644" height="2.733" transform="translate(12.712 50.092)"/><rect class="ab" width="76.644" height="2.733" transform="translate(12.712 70.986)"/><rect class="ab" width="76.644" height="2.733" transform="translate(12.712 87.579)"/><rect class="ab" width="76.644" height="2.733" transform="translate(12.712 108.473)"/><rect class="ab" width="76.644" height="2.733" transform="translate(12.712 125.065)"/><rect class="ab" width="76.644" height="2.733" transform="translate(12.712 145.959)"/><rect class="ab" width="76.644" height="2.733" transform="translate(12.712 162.552)"/><rect class="ab" width="76.644" height="2.733" transform="translate(12.712 183.446)"/><rect class="ab" width="46.301" height="2.733" transform="translate(12.712 200.038)"/></g><g transform="translate(39.845 363.949)"><path class="ac" d="M439.87,308.312a50.828,50.828,0,0,0-5.8.343v99.652a50.166,50.166,0,1,0,5.8-100Z" transform="translate(-364.777 -298.997)"/><circle class="x" cx="47.733" cy="47.733" r="47.733" transform="translate(0 94.213) rotate(-80.709)"/><g transform="translate(7.08 14.189)"><circle class="w" cx="47.733" cy="47.733" r="47.733"/><circle class="x" cx="38.942" cy="38.942" r="38.942" transform="translate(8.791 8.791)"/><path class="ad" d="M444.636,320.165a38.942,38.942,0,0,1,38.878,36.743c.04-.729.066-1.461.066-2.2a38.943,38.943,0,0,0-77.886,0c0,.738.026,1.47.066,2.2A38.942,38.942,0,0,1,444.636,320.165Z" transform="translate(-396.904 -306.606)"/><path class="x" d="M444.6,391.589a38.942,38.942,0,0,0,38.878-36.743,38.939,38.939,0,0,0-77.754,0A38.942,38.942,0,0,0,444.6,391.589Z" transform="translate(-396.873 -304.544)"/><text class="ae" transform="translate(32.244 68.495)"><tspan x="0" y="0">$</tspan></text><text class="af" transform="translate(29.804 66.868)"><tspan x="0" y="0">$</tspan></text></g></g><g transform="translate(100.628 183.066)"><g transform="translate(66.934 169.767)"><path class="ag" d="M508.562,303.419c-2.09-3.3-6.222-4.6-10.068-5.273-8.035-1.4-16.258,2.483-24.32,1.239l-4.646-.715-1.99,12.9c1.849.322,3.8.631,5.021,1.743a42.141,42.141,0,0,0,21.159,10.368c4.164.715,8.918.627,12.007-2.253,2.048-1.909,2.984-4.714,3.613-7.442C510.149,310.45,510.507,306.484,508.562,303.419Z" transform="translate(-462.956 -297.128)"/><path class="ah" d="M506.128,303.042c-2.09-3.3-6.222-4.6-10.066-5.271-8.037-1.406-16.26,2.481-24.322,1.239l-4.646-.717-1.99,12.9c1.849.324,3.8.633,5.021,1.743a42.138,42.138,0,0,0,21.161,10.368c4.162.717,8.918.629,12.005-2.253,2.048-1.909,2.984-4.712,3.613-7.442C507.717,310.074,508.073,306.109,506.128,303.042Z" transform="translate(-465.104 -297.46)"/></g><path class="ai" d="M442.107,257.846s-7.15,24.459-3.01,34.243,21.072,21.074,21.072,21.074,4.14-27.848,4.14-28.975S442.107,257.846,442.107,257.846Z" transform="translate(-422.263 -162.656)"/><path class="ai" d="M494.588,257.846s7.15,24.459,3.01,34.243-21.072,21.074-21.072,21.074-4.14-27.848-4.14-28.975S494.588,257.846,494.588,257.846Z" transform="translate(-391.743 -162.656)"/><path class="aj" d="M528.648,281.051s-6.337-25.976-25.342-34.845c-8.628-4.025-14.114-6.482-17.542-7.967l.435-2.169s-.674.224-2.85,1.137c-2.176-.913-2.85-1.137-2.85-1.137l.435,2.169c-3.428,1.485-8.914,3.942-17.542,7.967-19.007,8.869-25.342,34.845-25.342,34.845l13.939,9.5-3.8,49.417H518.51l-3.8-49.417Z" transform="translate(-422.049 -181.876)"/><path class="ai" d="M467.569,236.291c-6.431,0-11.642,7.542-11.642,16.846s5.211,16.846,11.642,16.846,11.644-7.542,11.644-16.846S474,236.291,467.569,236.291Z" transform="translate(-406.27 -181.681)"/><path class="ak" d="M494.366,237.846c0,15.1-9.927,32.581-22.172,32.581s-22.173-17.478-22.173-32.581,9.927-22.108,22.173-22.108S494.366,222.743,494.366,237.846Z" transform="translate(-411.483 -199.821)"/><path class="al" d="M467.014,282.292c-1.943,5.717,2.306,12.139,4.379,17.139,3.556,8.579-2.028,19.794-11.1,21.788s-18.99-6.25-18.354-15.517c.41-5.987,4.439-11.26,4.895-17.241.785-10.29-.081-14.43-4.249-23.87-2.856-6.463-2.359-16.723,1.476-22.889,3.679-5.913,9.85-9.383,11.049-16.736.949-5.812,3.236-11.8,8.391-15.127,6.311-4.078,15.292-3.1,20.948,1.694,6.619,5.614,6.648,15.84,1.553,22.6-2.169,2.875-6.63,5.164-9.97,6.5-5.8,2.329-14.1,2.971-15.486,9.065-1.888,8.272,2.489,15.46,6.881,21.164,1,1.3,3.575,2.766,3.641,4.492C471.172,278.15,467.861,279.8,467.014,282.292Z" transform="translate(-419.657 -207.284)"/><path class="al" d="M491.345,233.514c1.211,11.186-4.234,22.612-1.514,33.529,1.459,5.859,5.14,10.906,7.269,16.558a33.188,33.188,0,0,1-.247,23.785c-2.037,5.079-5.738,9.9-11,11.412s-11.919-1.649-12.583-7.081c-.7-5.746,4.981-10.5,5.354-16.271.555-8.6-8.086-9.857-7.244-18.436.655-6.672,9.55-11.38,11.382-21.063,1.15-6.085,1.3-14.214-2.822-18.836-2.6-2.912-6.205-4.665-9.528-6.708-7.128-4.386-15.432-19.865-2.882-21.577C482.512,206.785,490.261,223.489,491.345,233.514Z" transform="translate(-401.747 -206.072)"/><path class="ak" d="M479.551,233.393c-1.054,2.378-2.935,4.646-5.5,5.072-1.717.286-3.754-.565-4.187-2.252a4.729,4.729,0,0,1,.759-3.355,14.553,14.553,0,0,1,6.134-5.942C481.144,225.021,480.747,230.7,479.551,233.393Z" transform="translate(-394.047 -190.29)"/><path class="ak" d="M449.062,233.934c.872,2.449,2.575,4.853,5.1,5.475,1.692.416,3.788-.279,4.347-1.928a4.733,4.733,0,0,0-.5-3.4,14.538,14.538,0,0,0-5.665-6.39C448.111,225.464,448.076,231.155,449.062,233.934Z" transform="translate(-412.796 -189.72)"/><path class="am" d="M512.7,315.556H445.993l-3.409-51.87h73.524Z" transform="translate(-418.047 -157.502)"/><path class="an" d="M432.878,293.289h0c-2.351,7.039,1.2,14.628,7.888,16.861l62.781,20.963,8.549-25.6-62.781-20.963C442.627,282.316,435.228,286.248,432.878,293.289Z" transform="translate(-427.254 -139.641)"/><g transform="translate(0 169.767)"><path class="ag" d="M430.977,303.419c2.09-3.3,6.222-4.6,10.068-5.273,8.035-1.4,16.258,2.483,24.322,1.239l4.644-.715,1.99,12.9c-1.849.322-3.8.631-5.019,1.743a42.154,42.154,0,0,1-21.161,10.368c-4.164.715-8.918.627-12.007-2.253-2.048-1.909-2.984-4.714-3.611-7.442C429.39,310.45,429.034,306.484,430.977,303.419Z" transform="translate(-429.55 -297.128)"/><path class="ah" d="M433.411,303.042c2.09-3.3,6.222-4.6,10.068-5.271,8.035-1.406,16.258,2.481,24.321,1.239l4.644-.717,1.99,12.9c-1.849.324-3.8.633-5.019,1.743a42.153,42.153,0,0,1-21.161,10.368c-4.164.717-8.918.629-12.007-2.253-2.048-1.909-2.984-4.712-3.611-7.442C431.824,310.074,431.468,306.109,433.411,303.042Z" transform="translate(-427.402 -297.46)"/></g><path class="ao" d="M524.238,293.289h0c2.349,7.039-1.2,14.628-7.89,16.861l-62.781,20.963-8.547-25.6,62.78-20.963C514.491,282.316,521.888,286.248,524.238,293.289Z" transform="translate(-415.896 -139.641)"/></g><g transform="translate(513.776 201.255)"><g transform="translate(0 30.555)"><circle class="w" cx="73.479" cy="73.479" r="73.479"/><circle class="x" cx="59.947" cy="59.947" r="59.947" transform="matrix(0.972, -0.233, 0.233, 0.972, 1.218, 29.144)"/><path class="ad" d="M716.139,247.435A59.947,59.947,0,0,0,656.293,304c-.062-1.12-.1-2.248-.1-3.385a59.947,59.947,0,0,1,119.894,0c0,1.137-.04,2.265-.1,3.385A59.946,59.946,0,0,0,716.139,247.435Z" transform="translate(-642.66 -226.563)"/><ellipse class="x" cx="59.846" cy="56.561" rx="59.846" ry="56.561" transform="translate(13.633 20.872)"/><text class="ap" transform="translate(48.362 105.666)"><tspan x="0" y="0">$</tspan></text><text class="aq" transform="translate(44.984 102.623)"><tspan x="0" y="0">$</tspan></text></g><g transform="translate(87.971)"><path class="ar" d="M754.085,401.684s4.545,3.822,1.726,12.277H717.763s-1.879-8.925,22.678-12.277Z" transform="translate(-676.318 -53.891)"/><path class="as" d="M777.592,309.625s8.566,29.695-5.14,50.253l-3.285,5.7a26.321,26.321,0,0,0-2.769,19.412l23.122,97.937-13.579.335s-51.456-79.981-52.6-101.11,12.563-68.527,12.563-68.527Z" transform="translate(-671.424 -135.144)"/><path class="at" d="M727.638,320.015s-12.38,58.751-13.182,76.408,28.891,92.291,28.891,92.291H756.99s-6.68-94.692-1.864-105.927,31.952-51.887,26.268-72.524S727.638,320.015,727.638,320.015Z" transform="translate(-679.223 -140.921)"/><path class="ak" d="M719.028,310.726c.168-.049.333-.1.5-.152,2.1-.665,4.112-1.561,6.145-2.4,2.28-.939,5.092-1.988,6.691-3.976,1.271-1.58.371-3.737-.757-5.115-1.613-1.971-3.541-2.2-5.906-2.705a14.224,14.224,0,0,1-4.179-1.512c-2.174-1.246-4.176-2.784-6.384-3.969a3.713,3.713,0,0,0-2.174-.595c-2,.264-.855,2.063-.045,3,.555.648,3.81,3.006,3.1,3.728-1.139,1.162-3.686-.232-4.866-.665a27.774,27.774,0,0,1-5.84-2.9c-2.078-1.384-5-4.533-7.692-2.732A4.32,4.32,0,0,0,696,293.472c-.906,4.083.636,8.445,2.907,11.817A11.9,11.9,0,0,0,704.3,309.7,22.485,22.485,0,0,0,719.028,310.726Z" transform="translate(-695.733 -152.29)"/><path class="au" d="M766.191,253.961s7.333,3.912,8.092,10.752,5.241,94.042,5.241,94.042-22.719,14.628-58.436,7.788c0,0,11.78-81.312,16.339-92.331s11.019-14.44,11.019-14.44Z" transform="translate(-673.355 -184.274)"/><path class="av" d="M738.022,252.557l-3.21,19.666s13.244.8,19.265-9.23l1.2-19.265Z" transform="translate(-661.241 -193.305)"/><path class="ak" d="M729.886,262.194a81.84,81.84,0,0,1,1.421-10.663q1.26-7.063,2.521-14.127c.489-2.75.348-8.632,2.092-10.787,4.1-5.072,16.33-3.972,21.582-2.182a12.72,12.72,0,0,1,4.691,2.591c3.219,3.027,3.524,7.952,3.617,12.371l2.336,6.107a3.176,3.176,0,0,0-.764,2.116c-.706,7.427.079,15.878-5.036,21.309-3.391,3.6-8.555,4.833-13.449,5.537a27.427,27.427,0,0,1-10.307-.006c-3.36-.811-6.568-2.924-7.909-6.111A14.167,14.167,0,0,1,729.886,262.194Z" transform="translate(-665.617 -211.657)"/><path class="al" d="M746.595,221.087c-4.074-1.18-7.894-3.238-12.073-3.961-2.133-.369-4.59-.279-6.111,1.263a8.006,8.006,0,0,0-1.724,3.763c-1.63,6.41-2.67,13.747,1.092,19.188a12.99,12.99,0,0,0,14.389,4.791c3.383-1.13,6.119-3.622,9.28-5.273s7.4-2.289,10.036.115c2.542,2.318,2.649,6.619,5.439,8.632a6.323,6.323,0,0,0,5.864.529,12.278,12.278,0,0,0,4.818-3.7,23.4,23.4,0,0,0,5.571-14.353c.111-3.771-.811-7.713-3.3-10.554a14.119,14.119,0,0,0-10.187-4.432C761.046,216.821,755.375,223.629,746.595,221.087Z" transform="translate(-669.716 -216.945)"/><path class="ak" d="M753.986,230.907c7.463-.279,3.02,13.677-.774,15.946a3.63,3.63,0,0,1-1.233.527,2.894,2.894,0,0,1-2.084-.606C745.109,243.392,747.453,231.154,753.986,230.907Z" transform="translate(-650.166 -204.625)"/><path class="au" d="M774.719,258.607c-4.5,5.614-7.333,12.344-10.413,18.849a234.492,234.492,0,0,1-20.948,35.7,20.262,20.262,0,0,1-4.3,4.8c-2.916,2.129-6.683,2.617-10.272,3.035l-18.231,2.127v14.251c17.695,1.361,36.086.254,52.917-5.369a22.981,22.981,0,0,0,7.785-3.863c2.9-2.462,4.518-6.09,5.8-9.673C783.982,299.036,782.852,277.559,774.719,258.607Z" transform="translate(-682.647 -180.173)"/><path class="aw" d="M761.677,258.607s-12.186,31.449-23.583,50.068l-12.757,9.176S738.764,302.856,761.677,258.607Z" transform="translate(-669.604 -180.173)"/><path class="ar" d="M775.542,401.684s4.545,3.822,1.726,12.277H739.221s-1.879-8.925,22.678-12.277Z" transform="translate(-657.38 -53.891)"/></g></g></g></svg>